<?xml version="1.0" encoding="UTF-8"?>
<svg width="16px" height="16px" viewBox="0 0 16 16" version="1.1" xmlns="http://www.w3.org/2000/svg" xmlns:xlink="http://www.w3.org/1999/xlink">
    <title></title>
    <g id="Page-1" stroke="none" stroke-width="1" fill="none" fill-rule="evenodd">
        <g id="connectapp-chat" transform="translate(-351.000000, -745.000000)" fill="#FFFFFF" fill-rule="nonzero">
            <g id="Group-6" transform="translate(30.000000, 729.000000)">
                <path d="M327.286498,32 C327.456148,32 327.616869,31.9285714 327.724017,31.7946429 L329.884822,29.1607143 L333.929637,30.8125 C334.001068,30.8392857 334.0725,30.8571429 334.143932,30.8571429 C334.24215,30.8571429 334.340369,30.8303571 334.420729,30.7857143 C334.572521,30.6964286 334.679669,30.5535714 334.706455,30.3839286 L336.992267,16.6696429 C337.027982,16.4464286 336.938693,16.2321429 336.751185,16.0982143 C336.661896,16.0357143 336.545819,16 336.429743,16 C336.331524,16 336.233306,16.0267857 336.144016,16.0803571 L321.286244,24.6517857 C321.098736,24.7589286 320.991588,24.9642857 321.000517,25.1785714 C321.018375,25.4017857 321.152309,25.5892857 321.357675,25.6696429 L324.88461,27.1160714 L334.429658,18.8571429 L326.715045,28.3125 L326.715045,31.4285714 C326.715045,31.6696429 326.866837,31.8839286 327.090061,31.9642857 C327.152564,31.9910714 327.223995,32 327.286498,32 Z" id=""></path>
            </g>
        </g>
    </g>
</svg>